<?xml version="1.0" encoding="UTF-8"?>
<svg version="1.1" xmlns="http://www.w3.org/2000/svg" width="100" height="100">
<path d="M0 0 C33 0 66 0 100 0 C100 26.4 100 52.8 100 80 C67 80 34 80 0 80 C0 53.6 0 27.2 0 0 Z M4 4 C4 17.2 4 30.4 4 44 C8.50789276 40.13609192 12.79767029 36.33926648 16.9375 32.125 C17.43056641 31.62742187 17.92363281 31.12984375 18.43164062 30.6171875 C19.62345992 29.41379715 20.81208678 28.20724635 22 27 C25.15787918 30.90686335 28.10419447 34.89760883 31 39 C31.94359375 38.7525 31.94359375 38.7525 32.90625 38.5 C35.77210769 37.94754551 38.09096539 37.67257619 41 38 C42.98828125 39.6796875 42.98828125 39.6796875 44.8125 41.875 C47.71869421 45.28322471 47.71869421 45.28322471 51.9296875 46.44140625 C53.00476562 46.44011719 54.07984375 46.43882813 55.1875 46.4375 C61.08518338 46.47794126 63.50393362 47.79536785 68 51.5625 C76.57473315 57.87393795 76.57473315 57.87393795 96 56 C96 38.84 96 21.68 96 4 C65.64 4 35.28 4 4 4 Z M12.4375 40.9375 C11.63119141 41.53884766 10.82488281 42.14019531 9.99414062 42.75976562 C7.0604647 45.19550674 7.0604647 45.19550674 4 51 C4 59.25 4 67.5 4 76 C34.36 76 64.72 76 96 76 C96 70.72 96 65.44 96 60 C94.41832031 60.03222656 92.83664063 60.06445312 91.20703125 60.09765625 C79.15222189 60.1129409 71.18164397 59.92399025 61.890625 52.01171875 C57.62256687 49.041381 53.86047058 49.31465068 48.796875 49.30859375 C45.54680766 48.94999693 44.82131498 48.36344776 42.8125 45.875 C42.39097656 45.33488281 41.96945313 44.79476562 41.53515625 44.23828125 C39.25804537 42.40152769 37.60151322 42.78262175 34.75 43.0625 C32.22075973 43.46487913 30.28960195 43.85519902 28 45 C27.7525 44.29875 27.505 43.5975 27.25 42.875 C25.83440046 39.61912106 24.07362202 36.87631441 22 34 C18.74643136 34 14.74554564 38.92977837 12.4375 40.9375 Z " fill="#000000" transform="translate(0,10)"/>
<path d="M0 0 C3.55247432 0.87379409 4.94828114 2.4927342 6.9375 5.4765625 C7.63597125 8.3162489 7.63597125 10.6368761 6.9375 13.4765625 C4.94828114 16.4603908 3.55247432 18.07933091 0 18.953125 C-3.92313492 19.23547183 -5.73362371 18.69581336 -9.0625 16.4765625 C-11.28175086 13.14768621 -11.82140933 11.33719742 -11.5390625 7.4140625 C-10.07519871 1.46261629 -5.59135555 -0.40240816 0 0 Z M-6.0625 6.4765625 C-6.22916667 9.4765625 -6.22916667 9.4765625 -6.0625 12.4765625 C-4.94413776 13.82061025 -4.94413776 13.82061025 -2.0625 13.6015625 C0.81913776 13.82061025 0.81913776 13.82061025 1.9375 12.4765625 C2.10416667 9.4765625 2.10416667 9.4765625 1.9375 6.4765625 C0.81913776 5.13251475 0.81913776 5.13251475 -2.0625 5.3515625 C-4.94413776 5.13251475 -4.94413776 5.13251475 -6.0625 6.4765625 Z " fill="#000000" transform="translate(77.0625,25.5234375)"/>
</svg>
